<?xml version="1.0" standalone="no"?>
<!DOCTYPE svg PUBLIC "-//W3C//DTD SVG 20010904//EN"
 "http://www.w3.org/TR/2001/REC-SVG-20010904/DTD/svg10.dtd">
<svg version="1.0" xmlns="http://www.w3.org/2000/svg"
 width="500.000000pt" height="500.000000pt" viewBox="0 0 500.000000 500.000000"
 preserveAspectRatio="xMidYMid meet">

<g transform="translate(0.000000,500.000000) scale(0.100000,-0.100000)"
fill="#000000" stroke="none">
<path d="M0 2500 l0 -2500 2500 0 2500 0 0 2500 0 2500 -2500 0 -2500 0 0
-2500z m1698 554 c21 -6 22 -12 22 -91 l0 -84 -37 8 c-21 4 -72 8 -114 8 -99
0 -148 -29 -186 -112 -36 -79 -36 -197 0 -277 38 -81 87 -111 186 -111 42 0
93 4 114 8 l37 8 0 -84 c0 -98 6 -94 -126 -104 -154 -11 -286 28 -369 112 -90
89 -130 232 -107 385 26 182 130 298 302 337 55 13 232 11 278 -3z m761 -396
c74 -222 136 -409 139 -415 3 -10 -24 -13 -117 -13 -88 0 -123 3 -126 13 -2 6
-13 45 -25 85 l-21 72 -138 0 -138 0 -24 -82 -24 -83 -104 -3 c-96 -3 -103 -1
-96 15 3 10 64 189 135 398 70 209 131 388 135 398 6 15 23 17 139 17 l131 0
134 -402z m741 382 c69 -26 117 -68 146 -125 24 -49 26 -64 22 -133 -6 -101
-33 -151 -112 -208 l-29 -21 91 -161 91 -162 -128 0 -127 0 -68 145 -69 145
-48 0 -49 0 0 -145 0 -145 -110 0 -110 0 0 416 0 416 233 -4 c159 -3 243 -9
267 -18z m900 -65 l0 -85 -105 0 -105 0 0 -330 0 -330 -115 0 -115 0 -2 328
-3 327 -102 3 -103 3 0 84 0 85 325 0 325 0 0 -85z m-2332 -992 c-34 -4 -38
-7 -38 -34 0 -26 4 -29 33 -31 l32 -1 -32 -4 c-30 -4 -33 -7 -33 -38 0 -32 2
-34 43 -38 38 -4 37 -4 -8 -3 l-50 1 -1 78 -1 77 46 -2 c44 -1 44 -2 9 -5z
m205 -130 c5 -7 16 -13 25 -13 36 0 47 19 53 87 l6 68 1 -63 c2 -81 -8 -102
-53 -102 -45 0 -55 21 -53 102 l1 63 6 -65 c3 -36 10 -71 14 -77z m992 127 c4
-6 -6 -7 -24 -4 -48 10 -81 -17 -81 -66 0 -48 32 -75 80 -68 16 3 30 1 30 -4
0 -4 -20 -8 -43 -8 -48 0 -71 17 -82 61 -7 29 15 83 37 92 23 9 77 7 83 -3z
m487 -4 c30 -23 40 -63 24 -101 -15 -36 -43 -50 -87 -43 -22 3 -24 7 -25 73
-1 39 1 73 3 78 7 12 67 7 85 -7z m233 5 c-34 -5 -40 -10 -40 -31 0 -21 5 -26
35 -29 l35 -4 -35 -6 c-31 -5 -35 -9 -35 -36 0 -28 3 -30 45 -36 l45 -6 -52
-1 -53 -2 0 80 0 80 48 -1 47 -2 -40 -6z m503 -47 c12 -19 12 -19 25 0 34 51
47 58 23 12 -14 -27 -26 -64 -26 -82 0 -19 -4 -34 -10 -34 -5 0 -10 16 -10 37
0 20 -11 56 -26 82 -23 42 -8 32 24 -15z m-3232 5 l28 -41 33 38 33 39 -2 -75
-1 -75 -6 60 -6 60 -24 -34 -24 -33 -26 33 -26 34 -6 -60 -6 -60 -1 78 c-1 42
0 77 2 77 2 0 16 -19 32 -41z m524 -1 l1 -43 38 43 c21 23 42 42 47 42 4 0 -5
-13 -20 -29 l-28 -29 31 -46 c18 -25 28 -46 22 -46 -5 0 -20 18 -32 40 -21 38
-24 39 -41 23 -10 -9 -18 -27 -18 -40 0 -14 -4 -21 -10 -18 -5 3 -10 37 -10
76 0 39 4 69 10 69 6 0 10 -19 10 -42z m814 26 c19 -19 20 -38 3 -52 -9 -8
-12 -3 -12 21 0 27 -4 32 -27 35 -26 3 -28 1 -28 -32 0 -30 4 -36 23 -37 l22
-2 -22 -4 c-18 -3 -23 -11 -23 -35 0 -17 -3 -28 -7 -24 -9 8 -15 115 -8 134 6
17 61 15 79 -4z m386 -50 c27 -61 43 -119 18 -66 -9 17 -20 22 -48 22 -27 0
-42 -6 -54 -22 -9 -13 -15 -18 -14 -12 4 15 62 143 65 144 2 0 16 -30 33 -66z
m1226 25 l28 -41 33 38 33 39 -2 -75 -1 -75 -6 60 -6 60 -24 -34 -24 -33 -26
33 -26 34 -6 -60 -6 -60 -1 78 c-1 42 0 77 2 77 2 0 16 -19 32 -41z m-2633 19
c3 -7 17 -39 31 -70 14 -32 22 -58 17 -58 -5 0 -11 9 -14 20 -4 16 -14 20 -45
20 -32 0 -42 -4 -47 -20 -3 -11 -10 -20 -15 -20 -5 0 6 32 23 70 31 70 40 81
50 58z m1900 0 c3 -7 17 -39 31 -70 14 -32 22 -58 17 -58 -5 0 -11 9 -14 20
-4 16 -14 20 -45 20 -32 0 -42 -4 -47 -20 -3 -11 -10 -20 -15 -20 -5 0 6 32
23 70 31 70 40 81 50 58z"/>
<path d="M2131 2711 c-22 -71 -41 -134 -41 -140 0 -7 30 -11 85 -11 47 0 85 1
85 3 0 8 -80 271 -84 274 -2 2 -22 -54 -45 -126z"/>
<path d="M2920 2790 l0 -100 78 0 c95 0 123 13 141 65 12 35 11 45 -2 78 -20
46 -46 57 -143 57 l-74 0 0 -100z"/>
<path d="M3380 1910 c0 -66 1 -70 23 -70 39 0 67 27 67 66 0 41 -29 74 -65 74
-24 0 -25 -2 -25 -70z"/>
<path d="M2631 1919 c-6 -18 -11 -34 -11 -35 0 -2 14 -4 30 -4 17 0 30 2 30 5
0 9 -30 65 -34 65 -2 0 -9 -14 -15 -31z"/>
<path d="M1246 1922 c-21 -41 -21 -42 14 -42 35 0 34 -2 16 41 l-14 33 -16
-32z"/>
<path d="M3146 1922 c-21 -41 -21 -42 14 -42 35 0 34 -2 16 41 l-14 33 -16
-32z"/>
</g>
</svg>
